By Jagatjeet
Cover
[img]http://imageshack.us/a/img18/3873/coverdtkap.jpg[/img]

[img]http://img249.imageshack.us/img249/1102/753ec787.png[/img]
Rip Information
Code: Avi
Format : AVI
Format version : Version 2
File size : 698MiB
Duration : 1h 56m
Overall bit rate : 1 522 Kbps
Movie name : Dil Tainu Karda Ae Pyar - 2012 - PUNJABI - Super CamRip - DviX - 1CDRip - [SDR]
Encoded date : UTC 2012-12-05 16:43:04

Video
Code:
Format : AVC
Format/Info : Advanced Video Codec
Format profile : High@L3.1
Format settings, CABAC : Yes
Format settings, ReFrames : 4 frames
Muxing mode : Header stripping
Codec ID : V_MPEG4/ISO/AVC
Duration : 2h 2mn
Bit rate : 1 073 Kbps
Width : 288 pixels
Height : 544 pixels
Display aspect ratio : 2.35:1
Frame rate : 29.970 fps
Color space : YUV
Chroma subsampling : 4:2:0
Bit depth : 8 bits
Scan type : Progressive
Bits/(Pixel*Frame) : 0.051
Stream size : 500 MiB (69%)
Title : Track 1
Writing library : x264 core 125 r2200 999b753

Audio
Code:
Format : AC-3
Format/Info : Audio Coding 3
Mode extension : CM (complete main)
Format settings, Endianness : Big
Muxing mode : Header stripping
Codec ID : A_AC3
Duration : 2h 2mn 16s
Bit rate mode : Constant
Bit rate : 448 Kbps
Channel(s) : 6 channels
Channel positions : Front: L C R, Side: L R, LFE
Sampling rate : 48.0 KHz
Bit depth : 16 bits
Compression mode : Lossy
Stream size : 440 MiB (29%)
Title : Track 1
Language : Punjabi

[img]http://img183.imageshack.us/img183/493/f4685723.png[/img]

[IMG]http://imageshack.us/a/img13/2571/30969027.png[/IMG]

[IMG]http://imageshack.us/a/img24/8108/86721030.png[/IMG]

[IMG]http://imageshack.us/a/img694/6169/42550420.png[/IMG]

[IMG]http://imageshack.us/a/img834/9207/36641439.png[/IMG]


[img]http://i878.photobucket.com/albums/ab341/djrajiv/30m7gcojpg.gif[/img]


[img]http://i1227.photobucket.com/albums/ee432/djrajiv2009/48655751775352955506.gif[/img]

[img]http://kastatic.com/i2/users/0f72845cdfe90fb87159e2930d3a4736.gif[/img]

[img]http://kastatic.com/i2/users/574d5c240d52ebb26b9eeb3634a87b07.gif[/img]



[img]http://img526.imageshack.us/img526/5956/hf7asze69mv.png[/img]

[img]http://kastatic.com/i2/users/6da6d2becaa013d9afbae59ca1bc4f02.gif[/img]

[img]http://torrent-stats.info/6adc/dbdd40fc.png[/img]


[size=7][color=silver]By SDR[/color][/size]
